{
	"asset":{
		"generator":"Khronos glTF Blender I/O v3.5.30",
		"version":"2.0"
	},
	"extensionsUsed":[
		"KHR_materials_ior"
	],
	"scene":0,
	"scenes":[
		{
			"name":"Scene",
			"nodes":[
				0,
				1
			]
		}
	],
	"nodes":[
		{
			"mesh":0,
			"name":"Skin"
		},
		{
			"mesh":1,
			"name":"Shorts"
		}
	],
	"materials":[
		{
			"doubleSided":true,
			"extensions":{
				"KHR_materials_specular":{
					"specularColorFactor":[
						0,
						0,
						0
					]
				},
				"KHR_materials_ior":{
					"ior":1.4500000476837158
				}
			},
			"name":"9.003",
			"normalTexture":{
				"index":0,
				"scale":0
			},
			"pbrMetallicRoughness":{
				"baseColorTexture":{
					"index":1
				},
				"metallicFactor":0,
				"metallicRoughnessTexture":{
					"index":2
				}
			}
		},
		{
			"doubleSided":true,
			"extensions":{
				"KHR_materials_specular":{
					"specularColorFactor":[
						0,
						0,
						0
					]
				},
				"KHR_materials_ior":{
					"ior":1.4500000476837158
				}
			},
			"name":"10.002",
			"normalTexture":{
				"index":3,
				"scale":0
			},
			"pbrMetallicRoughness":{
				"baseColorTexture":{
					"index":4
				},
				"metallicFactor":0,
				"metallicRoughnessTexture":{
					"index":5
				}
			}
		}
	],
	"meshes":[
		{
			"name":"9.003",
			"primitives":[
				{
					"attributes":{
						"POSITION":0,
						"TEXCOORD_0":1,
						"NORMAL":2
					},
					"indices":3,
					"material":0
				}
			]
		},
		{
			"name":"10.002",
			"primitives":[
				{
					"attributes":{
						"POSITION":4,
						"TEXCOORD_0":5,
						"NORMAL":6
					},
					"indices":7,
					"material":1
				}
			]
		}
	],
	"textures":[
		{
			"sampler":0,
			"source":0
		},
		{
			"sampler":0,
			"source":1
		},
		{
			"sampler":0,
			"source":2
		},
		{
			"sampler":0,
			"source":3
		},
		{
			"sampler":0,
			"source":4
		},
		{
			"sampler":0,
			"source":5
		}
	],
	"images":[
		{
			"mimeType":"image/jpeg",
			"name":"HumanSkin_Normal",
			"uri":"HumanSkin_Normal.jpg"
		},
		{
			"mimeType":"image/jpeg",
			"name":"HumanSkin_BaseColor",
			"uri":"HumanSkin_BaseColor.jpg"
		},
		{
			"mimeType":"image/png",
			"name":"HumanSkin_Roughness",
			"uri":"HumanSkin_Roughness.png"
		},
		{
			"mimeType":"image/jpeg",
			"name":"Shorts_Normal",
			"uri":"Shorts_Normal.jpg"
		},
		{
			"mimeType":"image/jpeg",
			"name":"Shorts_BaseColor",
			"uri":"Shorts_BaseColor.jpg"
		},
		{
			"mimeType":"image/png",
			"name":"Shorts_Roughness",
			"uri":"Shorts_Roughness.png"
		}
	],
	"accessors":[
		{
			"bufferView":0,
			"componentType":5126,
			"count":37977,
			"max":[
				29.235107421875,
				170.07078552246094,
				12.95829963684082
			],
			"min":[
				-29.353599548339844,
				-0.2202949970960617,
				-14.997849464416504
			],
			"type":"VEC3"
		},
		{
			"bufferView":1,
			"componentType":5126,
			"count":37977,
			"type":"VEC2"
		},
		{
			"bufferView":2,
			"componentType":5126,
			"count":37977,
			"type":"VEC3"
		},
		{
			"bufferView":3,
			"componentType":5123,
			"count":81252,
			"type":"SCALAR"
		},
		{
			"bufferView":4,
			"componentType":5126,
			"count":4400,
			"max":[
				16.69771385192871,
				99.8612289428711,
				9.313079833984375
			],
			"min":[
				-16.873699188232422,
				76.07980346679688,
				-15.863997459411621
			],
			"type":"VEC3"
		},
		{
			"bufferView":5,
			"componentType":5126,
			"count":4400,
			"type":"VEC2"
		},
		{
			"bufferView":6,
			"componentType":5126,
			"count":4400,
			"type":"VEC3"
		},
		{
			"bufferView":7,
			"componentType":5123,
			"count":9432,
			"type":"SCALAR"
		}
	],
	"bufferViews":[
		{
			"buffer":0,
			"byteLength":455724,
			"byteOffset":0,
			"target":34962
		},
		{
			"buffer":0,
			"byteLength":303816,
			"byteOffset":455724,
			"target":34962
		},
		{
			"buffer":0,
			"byteLength":455724,
			"byteOffset":759540,
			"target":34962
		},
		{
			"buffer":0,
			"byteLength":162504,
			"byteOffset":1215264,
			"target":34963
		},
		{
			"buffer":0,
			"byteLength":52800,
			"byteOffset":1377768,
			"target":34962
		},
		{
			"buffer":0,
			"byteLength":35200,
			"byteOffset":1430568,
			"target":34962
		},
		{
			"buffer":0,
			"byteLength":52800,
			"byteOffset":1465768,
			"target":34962
		},
		{
			"buffer":0,
			"byteLength":18864,
			"byteOffset":1518568,
			"target":34963
		}
	],
	"samplers":[
		{
			"magFilter":9729,
			"minFilter":9987
		}
	],
	"buffers":[
		{
			"byteLength":1537432,
			"uri":"Skin.bin"
		}
	]
}
