{
	"asset":{
		"generator":"Khronos glTF Blender I/O v3.5.30",
		"version":"2.0"
	},
	"extensionsUsed":[
		"KHR_materials_ior"
	],
	"scene":0,
	"scenes":[
		{
			"name":"Scene",
			"nodes":[
				0,
				1,
				2
			]
		}
	],
	"nodes":[
		{
			"mesh":0,
			"name":"Human muscle tissue1"
		},
		{
			"mesh":1,
			"name":"Human muscle tissue2"
		},
		{
			"mesh":2,
			"name":"Human muscle tissue3"
		}
	],
	"materials":[
		{
			"doubleSided":true,
			"extensions":{
				"KHR_materials_specular":{
					"specularColorFactor":[
						0,
						0,
						0
					]
				},
				"KHR_materials_ior":{
					"ior":1.4500000476837158
				}
			},
			"name":"4.001",
			"normalTexture":{
				"index":0,
				"scale":0
			},
			"pbrMetallicRoughness":{
				"baseColorTexture":{
					"index":1
				},
				"metallicFactor":0,
				"metallicRoughnessTexture":{
					"index":2
				}
			}
		},
		{
			"doubleSided":true,
			"extensions":{
				"KHR_materials_specular":{
					"specularColorFactor":[
						0,
						0,
						0
					]
				},
				"KHR_materials_ior":{
					"ior":1.4500000476837158
				}
			},
			"name":"5.001",
			"normalTexture":{
				"index":3,
				"scale":0
			},
			"pbrMetallicRoughness":{
				"baseColorTexture":{
					"index":4
				},
				"metallicFactor":0,
				"metallicRoughnessTexture":{
					"index":5
				}
			}
		},
		{
			"doubleSided":true,
			"extensions":{
				"KHR_materials_specular":{
					"specularColorFactor":[
						0,
						0,
						0
					]
				},
				"KHR_materials_ior":{
					"ior":1.4500000476837158
				}
			},
			"name":"6.002",
			"normalTexture":{
				"index":6,
				"scale":0
			},
			"pbrMetallicRoughness":{
				"baseColorTexture":{
					"index":7
				},
				"metallicFactor":0,
				"metallicRoughnessTexture":{
					"index":8
				}
			}
		}
	],
	"meshes":[
		{
			"name":"4.001",
			"primitives":[
				{
					"attributes":{
						"POSITION":0,
						"TEXCOORD_0":1,
						"NORMAL":2
					},
					"indices":3,
					"material":0
				}
			]
		},
		{
			"name":"5.001",
			"primitives":[
				{
					"attributes":{
						"POSITION":4,
						"TEXCOORD_0":5,
						"NORMAL":6
					},
					"indices":7,
					"material":1
				}
			]
		},
		{
			"name":"6.002",
			"primitives":[
				{
					"attributes":{
						"POSITION":8,
						"TEXCOORD_0":9,
						"NORMAL":10
					},
					"indices":11,
					"material":2
				}
			]
		}
	],
	"textures":[
		{
			"sampler":0,
			"source":0
		},
		{
			"sampler":0,
			"source":1
		},
		{
			"sampler":0,
			"source":2
		},
		{
			"sampler":0,
			"source":3
		},
		{
			"sampler":0,
			"source":4
		},
		{
			"sampler":0,
			"source":5
		},
		{
			"sampler":0,
			"source":6
		},
		{
			"sampler":0,
			"source":7
		},
		{
			"sampler":0,
			"source":8
		}
	],
	"images":[
		{
			"mimeType":"image/jpeg",
			"name":"Muscles_MusclesPart_3_Normal",
			"uri":"Muscles_MusclesPart_3_Normal.jpg"
		},
		{
			"mimeType":"image/jpeg",
			"name":"Muscles_MusclesPart_3_BaseColor",
			"uri":"Muscles_MusclesPart_3_BaseColor.jpg"
		},
		{
			"mimeType":"image/png",
			"name":"Muscles_MusclesPart_3_Roughness",
			"uri":"Muscles_MusclesPart_3_Roughness.png"
		},
		{
			"mimeType":"image/jpeg",
			"name":"Muscles_MusclesPart_2_Normal",
			"uri":"Muscles_MusclesPart_2_Normal.jpg"
		},
		{
			"mimeType":"image/jpeg",
			"name":"Muscles_MusclesPart_2_BaseColor",
			"uri":"Muscles_MusclesPart_2_BaseColor.jpg"
		},
		{
			"mimeType":"image/png",
			"name":"Muscles_MusclesPart_2_Roughness",
			"uri":"Muscles_MusclesPart_2_Roughness.png"
		},
		{
			"mimeType":"image/jpeg",
			"name":"Muscles_MusclesPart_1_Normal",
			"uri":"Muscles_MusclesPart_1_Normal.jpg"
		},
		{
			"mimeType":"image/jpeg",
			"name":"Muscles_MusclesPart_1_BaseColor",
			"uri":"Muscles_MusclesPart_1_BaseColor.jpg"
		},
		{
			"mimeType":"image/png",
			"name":"Muscles_MusclesPart_1_Roughness",
			"uri":"Muscles_MusclesPart_1_Roughness.png"
		}
	],
	"accessors":[
		{
			"bufferView":0,
			"componentType":5126,
			"count":24972,
			"max":[
				28.781017303466797,
				166.95867919921875,
				10.144100189208984
			],
			"min":[
				-29.216899871826172,
				0.14352600276470184,
				-14.469979286193848
			],
			"type":"VEC3"
		},
		{
			"bufferView":1,
			"componentType":5126,
			"count":24972,
			"type":"VEC2"
		},
		{
			"bufferView":2,
			"componentType":5126,
			"count":24972,
			"type":"VEC3"
		},
		{
			"bufferView":3,
			"componentType":5123,
			"count":36318,
			"type":"SCALAR"
		},
		{
			"bufferView":4,
			"componentType":5126,
			"count":51135,
			"max":[
				28.054868698120117,
				168.80343627929688,
				12.092100143432617
			],
			"min":[
				-28.725099563598633,
				0.42364901304244995,
				-13.296623229980469
			],
			"type":"VEC3"
		},
		{
			"bufferView":5,
			"componentType":5126,
			"count":51135,
			"type":"VEC2"
		},
		{
			"bufferView":6,
			"componentType":5126,
			"count":51135,
			"type":"VEC3"
		},
		{
			"bufferView":7,
			"componentType":5123,
			"count":100236,
			"type":"SCALAR"
		},
		{
			"bufferView":8,
			"componentType":5126,
			"count":23618,
			"max":[
				28.787935256958008,
				160.307373046875,
				10.354499816894531
			],
			"min":[
				-29.073999404907227,
				0.44569599628448486,
				-13.755491256713867
			],
			"type":"VEC3"
		},
		{
			"bufferView":9,
			"componentType":5126,
			"count":23618,
			"type":"VEC2"
		},
		{
			"bufferView":10,
			"componentType":5126,
			"count":23618,
			"type":"VEC3"
		},
		{
			"bufferView":11,
			"componentType":5123,
			"count":36798,
			"type":"SCALAR"
		}
	],
	"bufferViews":[
		{
			"buffer":0,
			"byteLength":299664,
			"byteOffset":0,
			"target":34962
		},
		{
			"buffer":0,
			"byteLength":199776,
			"byteOffset":299664,
			"target":34962
		},
		{
			"buffer":0,
			"byteLength":299664,
			"byteOffset":499440,
			"target":34962
		},
		{
			"buffer":0,
			"byteLength":72636,
			"byteOffset":799104,
			"target":34963
		},
		{
			"buffer":0,
			"byteLength":613620,
			"byteOffset":871740,
			"target":34962
		},
		{
			"buffer":0,
			"byteLength":409080,
			"byteOffset":1485360,
			"target":34962
		},
		{
			"buffer":0,
			"byteLength":613620,
			"byteOffset":1894440,
			"target":34962
		},
		{
			"buffer":0,
			"byteLength":200472,
			"byteOffset":2508060,
			"target":34963
		},
		{
			"buffer":0,
			"byteLength":283416,
			"byteOffset":2708532,
			"target":34962
		},
		{
			"buffer":0,
			"byteLength":188944,
			"byteOffset":2991948,
			"target":34962
		},
		{
			"buffer":0,
			"byteLength":283416,
			"byteOffset":3180892,
			"target":34962
		},
		{
			"buffer":0,
			"byteLength":73596,
			"byteOffset":3464308,
			"target":34963
		}
	],
	"samplers":[
		{
			"magFilter":9729,
			"minFilter":9987
		}
	],
	"buffers":[
		{
			"byteLength":3537904,
			"uri":"Human_muscle_tissue.bin"
		}
	]
}
