{
	"asset":{
		"generator":"Khronos glTF Blender I/O v3.5.30",
		"version":"2.0"
	},
	"scene":0,
	"scenes":[
		{
			"name":"Scene",
			"nodes":[
				26
			]
		}
	],
	"nodes":[
		{
			"mesh":0,
			"name":"Costal_cartilages"
		},
		{
			"children":[
				0
			],
			"name":"Costal_cartilages.001"
		},
		{
			"mesh":1,
			"name":"Heart"
		},
		{
			"children":[
				2
			],
			"name":"Heart.001"
		},
		{
			"mesh":2,
			"name":"Htc"
		},
		{
			"children":[
				4
			],
			"name":"Htc.001"
		},
		{
			"mesh":3,
			"name":"Ligament"
		},
		{
			"children":[
				6
			],
			"name":"Ligament.001"
		},
		{
			"mesh":4,
			"name":"Lungs"
		},
		{
			"children":[
				8
			],
			"name":"Lungs.001"
		},
		{
			"mesh":5,
			"name":"Thorax"
		},
		{
			"children":[
				10
			],
			"name":"Thorax.001"
		},
		{
			"mesh":6,
			"name":"Thyroid_gland"
		},
		{
			"children":[
				12
			],
			"name":"Thyroid_gland.001"
		},
		{
			"mesh":7,
			"name":"Trachea"
		},
		{
			"children":[
				14
			],
			"name":"Trachea.001"
		},
		{
			"mesh":8,
			"name":"Tracheal_cartilages_Tracheal"
		},
		{
			"children":[
				16
			],
			"name":"Tracheal_cartilages"
		},
		{
			"mesh":9,
			"name":"Valves"
		},
		{
			"children":[
				18
			],
			"name":"Valves.001"
		},
		{
			"mesh":10,
			"name":"Vertebral_discs"
		},
		{
			"children":[
				20
			],
			"name":"Vertebral_discs.001"
		},
		{
			"name":"Object_26",
			"translation":[
				0.018798828125,
				0.0039157867431640625,
				-0.0416107177734375
			]
		},
		{
			"children":[
				22
			],
			"name":"ZBrushDefault",
			"rotation":[
				-0.05779922381043434,
				0.9386617541313171,
				-0.006515877787023783,
				0.3398984670639038
			],
			"translation":[
				603647.375,
				89460.5703125,
				504697.21875
			]
		},
		{
			"children":[
				1,
				3,
				5,
				7,
				9,
				11,
				13,
				15,
				17,
				19,
				21,
				23
			],
			"name":"RootNode"
		},
		{
			"children":[
				24
			],
			"name":"36ff0c0a5e2f452db81c1eee398d66cb.fbx",
			"rotation":[
				0.70710688829422,
				0,
				0,
				0.7071066498756409
			]
		},
		{
			"children":[
				25
			],
			"name":"Sketchfab_model",
			"rotation":[
				-0.7071066498756409,
				0.03820823132991791,
				-0.00045514124212786555,
				0.7060737013816833
			],
			"translation":[
				4.626738548278809,
				-3.57502818107605,
				-3.614461898803711
			]
		}
	],
	"materials":[
		{
			"alphaMode":"BLEND",
			"doubleSided":true,
			"name":"Costal_cartilages.001",
			"pbrMetallicRoughness":{}
		},
		{
			"alphaMode":"BLEND",
			"name":"Heart.001",
			"pbrMetallicRoughness":{}
		},
		{
			"doubleSided":true,
			"name":"material.002",
			"pbrMetallicRoughness":{}
		},
		{
			"doubleSided":true,
			"name":"Ligament.001",
			"pbrMetallicRoughness":{}
		},
		{
			"alphaMode":"BLEND",
			"doubleSided":true,
			"name":"Lungs.001",
			"pbrMetallicRoughness":{}
		},
		{
			"alphaMode":"BLEND",
			"doubleSided":true,
			"name":"Thorax.001",
			"pbrMetallicRoughness":{}
		},
		{
			"doubleSided":true,
			"name":"Thyroid_gland.001",
			"pbrMetallicRoughness":{}
		},
		{
			"doubleSided":true,
			"name":"Trachea.001",
			"pbrMetallicRoughness":{}
		},
		{
			"doubleSided":true,
			"name":"Tracheal_cartilages.001",
			"pbrMetallicRoughness":{}
		},
		{
			"doubleSided":true,
			"emissiveFactor":[
				1,
				1,
				1
			],
			"name":"Valves.001",
			"pbrMetallicRoughness":{
				"baseColorFactor":[
					0,
					0,
					0,
					1
				]
			}
		},
		{
			"alphaMode":"BLEND",
			"doubleSided":true,
			"name":"Vertebral_discs.001",
			"pbrMetallicRoughness":{}
		}
	],
	"meshes":[
		{
			"name":"Costal_cartilages_Costal_cartilages_0.001",
			"primitives":[
				{
					"attributes":{
						"COLOR_0":0,
						"POSITION":1,
						"NORMAL":2
					},
					"indices":3,
					"material":0
				}
			]
		},
		{
			"name":"Heart_Heart_0.001",
			"primitives":[
				{
					"attributes":{
						"COLOR_0":4,
						"POSITION":5,
						"NORMAL":6
					},
					"indices":7,
					"material":1
				}
			]
		},
		{
			"name":"Htc_Htc_0.002",
			"primitives":[
				{
					"attributes":{
						"COLOR_0":8,
						"POSITION":9,
						"NORMAL":10
					},
					"indices":11,
					"material":2
				}
			]
		},
		{
			"name":"Ligament_Ligament_0.001",
			"primitives":[
				{
					"attributes":{
						"COLOR_0":12,
						"POSITION":13,
						"NORMAL":14
					},
					"indices":15,
					"material":3
				}
			]
		},
		{
			"name":"Lungs_Lungs_0.001",
			"primitives":[
				{
					"attributes":{
						"COLOR_0":16,
						"POSITION":17,
						"NORMAL":18
					},
					"indices":19,
					"material":4
				}
			]
		},
		{
			"name":"Thorax_Thorax_0.001",
			"primitives":[
				{
					"attributes":{
						"COLOR_0":20,
						"POSITION":21,
						"NORMAL":22
					},
					"indices":23,
					"material":5
				}
			]
		},
		{
			"name":"Thyroid_gland_Thyroid_gland_0.001",
			"primitives":[
				{
					"attributes":{
						"COLOR_0":24,
						"POSITION":25,
						"NORMAL":26
					},
					"indices":27,
					"material":6
				}
			]
		},
		{
			"name":"Trachea_Trachea_0.001",
			"primitives":[
				{
					"attributes":{
						"COLOR_0":28,
						"POSITION":29,
						"NORMAL":30
					},
					"indices":31,
					"material":7
				}
			]
		},
		{
			"name":"Tracheal_cartilages_Tracheal_cartilages_0.001",
			"primitives":[
				{
					"attributes":{
						"COLOR_0":32,
						"POSITION":33,
						"NORMAL":34
					},
					"indices":35,
					"material":8
				}
			]
		},
		{
			"name":"Valves_Valves_0.001",
			"primitives":[
				{
					"attributes":{
						"COLOR_0":36,
						"POSITION":37,
						"NORMAL":38
					},
					"indices":39,
					"material":9
				}
			]
		},
		{
			"name":"Vertebral_discs_Vertebral_discs_0.001",
			"primitives":[
				{
					"attributes":{
						"COLOR_0":40,
						"POSITION":41,
						"NORMAL":42
					},
					"indices":43,
					"material":10
				}
			]
		}
	],
	"accessors":[
		{
			"bufferView":0,
			"componentType":5123,
			"count":1316,
			"normalized":true,
			"type":"VEC4"
		},
		{
			"bufferView":1,
			"componentType":5126,
			"count":1316,
			"max":[
				334.6337585449219,
				275.94110107421875,
				219.3953399658203
			],
			"min":[
				-355.9375305175781,
				-450.2557373046875,
				-90.53944396972656
			],
			"type":"VEC3"
		},
		{
			"bufferView":2,
			"componentType":5126,
			"count":1316,
			"type":"VEC3"
		},
		{
			"bufferView":3,
			"componentType":5123,
			"count":4758,
			"type":"SCALAR"
		},
		{
			"bufferView":4,
			"componentType":5123,
			"count":25427,
			"normalized":true,
			"type":"VEC4"
		},
		{
			"bufferView":5,
			"componentType":5126,
			"count":25427,
			"max":[
				148.9403533935547,
				230.88357543945312,
				145.66529846191406
			],
			"min":[
				-152.1088104248047,
				-205.50079345703125,
				-230.63343811035156
			],
			"type":"VEC3"
		},
		{
			"bufferView":6,
			"componentType":5126,
			"count":25427,
			"type":"VEC3"
		},
		{
			"bufferView":7,
			"componentType":5123,
			"count":133662,
			"type":"SCALAR"
		},
		{
			"bufferView":8,
			"componentType":5123,
			"count":5248,
			"normalized":true,
			"type":"VEC4"
		},
		{
			"bufferView":9,
			"componentType":5126,
			"count":5248,
			"max":[
				-21.22218132019043,
				493.6160583496094,
				126.27401733398438
			],
			"min":[
				-114.23641204833984,
				362.5272216796875,
				0.9381634593009949
			],
			"type":"VEC3"
		},
		{
			"bufferView":10,
			"componentType":5126,
			"count":5248,
			"type":"VEC3"
		},
		{
			"bufferView":11,
			"componentType":5123,
			"count":22716,
			"type":"SCALAR"
		},
		{
			"bufferView":12,
			"componentType":5123,
			"count":2225,
			"normalized":true,
			"type":"VEC4"
		},
		{
			"bufferView":13,
			"componentType":5126,
			"count":2225,
			"max":[
				-22.609018325805664,
				488.621826171875,
				121.07183074951172
			],
			"min":[
				-111.01947784423828,
				391.373779296875,
				38.279083251953125
			],
			"type":"VEC3"
		},
		{
			"bufferView":14,
			"componentType":5126,
			"count":2225,
			"type":"VEC3"
		},
		{
			"bufferView":15,
			"componentType":5123,
			"count":13482,
			"type":"SCALAR"
		},
		{
			"bufferView":16,
			"componentType":5123,
			"count":12778,
			"normalized":true,
			"type":"VEC4"
		},
		{
			"bufferView":17,
			"componentType":5126,
			"count":12778,
			"max":[
				338.48687744140625,
				398.9228820800781,
				189.95587158203125
			],
			"min":[
				-367.99078369140625,
				-265.4504089355469,
				-375.65411376953125
			],
			"type":"VEC3"
		},
		{
			"bufferView":18,
			"componentType":5126,
			"count":12778,
			"type":"VEC3"
		},
		{
			"bufferView":19,
			"componentType":5123,
			"count":55908,
			"type":"SCALAR"
		},
		{
			"bufferView":20,
			"componentType":5123,
			"count":35441,
			"normalized":true,
			"type":"VEC4"
		},
		{
			"bufferView":21,
			"componentType":5126,
			"count":35441,
			"max":[
				391.0115661621094,
				485.9433288574219,
				200.06906127929688
			],
			"min":[
				-522.2385864257812,
				-476.7774353027344,
				-417.1053161621094
			],
			"type":"VEC3"
		},
		{
			"bufferView":22,
			"componentType":5126,
			"count":35441,
			"type":"VEC3"
		},
		{
			"bufferView":23,
			"componentType":5123,
			"count":81423,
			"type":"SCALAR"
		},
		{
			"bufferView":24,
			"componentType":5123,
			"count":440,
			"normalized":true,
			"type":"VEC4"
		},
		{
			"bufferView":25,
			"componentType":5126,
			"count":440,
			"max":[
				-19.21526336669922,
				446.5356750488281,
				54.38282775878906
			],
			"min":[
				-114.78683471679688,
				341.4332275390625,
				-16.99370765686035
			],
			"type":"VEC3"
		},
		{
			"bufferView":26,
			"componentType":5126,
			"count":440,
			"type":"VEC3"
		},
		{
			"bufferView":27,
			"componentType":5123,
			"count":2628,
			"type":"SCALAR"
		},
		{
			"bufferView":28,
			"componentType":5123,
			"count":9809,
			"normalized":true,
			"type":"VEC4"
		},
		{
			"bufferView":29,
			"componentType":5126,
			"count":9809,
			"max":[
				278.3290100097656,
				406.5455322265625,
				150.7844696044922
			],
			"min":[
				-315.5257263183594,
				-165.9014434814453,
				-340.65576171875
			],
			"type":"VEC3"
		},
		{
			"bufferView":30,
			"componentType":5126,
			"count":9809,
			"type":"VEC3"
		},
		{
			"bufferView":31,
			"componentType":5123,
			"count":54306,
			"type":"SCALAR"
		},
		{
			"bufferView":32,
			"componentType":5123,
			"count":18182,
			"normalized":true,
			"type":"VEC4"
		},
		{
			"bufferView":33,
			"componentType":5126,
			"count":18182,
			"max":[
				272.0812072753906,
				394.632568359375,
				111.31825256347656
			],
			"min":[
				-281.006103515625,
				-147.6398468017578,
				-320.5987243652344
			],
			"type":"VEC3"
		},
		{
			"bufferView":34,
			"componentType":5126,
			"count":18182,
			"type":"VEC3"
		},
		{
			"bufferView":35,
			"componentType":5123,
			"count":46812,
			"type":"SCALAR"
		},
		{
			"bufferView":36,
			"componentType":5123,
			"count":12729,
			"normalized":true,
			"type":"VEC4"
		},
		{
			"bufferView":37,
			"componentType":5126,
			"count":12729,
			"max":[
				55.45380783081055,
				58.964515686035156,
				96.54386901855469
			],
			"min":[
				-112.29849243164062,
				-94.7715072631836,
				-106.2083740234375
			],
			"type":"VEC3"
		},
		{
			"bufferView":38,
			"componentType":5126,
			"count":12729,
			"type":"VEC3"
		},
		{
			"bufferView":39,
			"componentType":5123,
			"count":43911,
			"type":"SCALAR"
		},
		{
			"bufferView":40,
			"componentType":5123,
			"count":1125,
			"normalized":true,
			"type":"VEC4"
		},
		{
			"bufferView":41,
			"componentType":5126,
			"count":1125,
			"max":[
				58.04141616821289,
				453.4021301269531,
				0.5711419582366943
			],
			"min":[
				-97.04945373535156,
				-254.60032653808594,
				-322.0260314941406
			],
			"type":"VEC3"
		},
		{
			"bufferView":42,
			"componentType":5126,
			"count":1125,
			"type":"VEC3"
		},
		{
			"bufferView":43,
			"componentType":5123,
			"count":6582,
			"type":"SCALAR"
		}
	],
	"bufferViews":[
		{
			"buffer":0,
			"byteLength":10528,
			"byteOffset":0,
			"target":34962
		},
		{
			"buffer":0,
			"byteLength":15792,
			"byteOffset":10528,
			"target":34962
		},
		{
			"buffer":0,
			"byteLength":15792,
			"byteOffset":26320,
			"target":34962
		},
		{
			"buffer":0,
			"byteLength":9516,
			"byteOffset":42112,
			"target":34963
		},
		{
			"buffer":0,
			"byteLength":203416,
			"byteOffset":51628,
			"target":34962
		},
		{
			"buffer":0,
			"byteLength":305124,
			"byteOffset":255044,
			"target":34962
		},
		{
			"buffer":0,
			"byteLength":305124,
			"byteOffset":560168,
			"target":34962
		},
		{
			"buffer":0,
			"byteLength":267324,
			"byteOffset":865292,
			"target":34963
		},
		{
			"buffer":0,
			"byteLength":41984,
			"byteOffset":1132616,
			"target":34962
		},
		{
			"buffer":0,
			"byteLength":62976,
			"byteOffset":1174600,
			"target":34962
		},
		{
			"buffer":0,
			"byteLength":62976,
			"byteOffset":1237576,
			"target":34962
		},
		{
			"buffer":0,
			"byteLength":45432,
			"byteOffset":1300552,
			"target":34963
		},
		{
			"buffer":0,
			"byteLength":17800,
			"byteOffset":1345984,
			"target":34962
		},
		{
			"buffer":0,
			"byteLength":26700,
			"byteOffset":1363784,
			"target":34962
		},
		{
			"buffer":0,
			"byteLength":26700,
			"byteOffset":1390484,
			"target":34962
		},
		{
			"buffer":0,
			"byteLength":26964,
			"byteOffset":1417184,
			"target":34963
		},
		{
			"buffer":0,
			"byteLength":102224,
			"byteOffset":1444148,
			"target":34962
		},
		{
			"buffer":0,
			"byteLength":153336,
			"byteOffset":1546372,
			"target":34962
		},
		{
			"buffer":0,
			"byteLength":153336,
			"byteOffset":1699708,
			"target":34962
		},
		{
			"buffer":0,
			"byteLength":111816,
			"byteOffset":1853044,
			"target":34963
		},
		{
			"buffer":0,
			"byteLength":283528,
			"byteOffset":1964860,
			"target":34962
		},
		{
			"buffer":0,
			"byteLength":425292,
			"byteOffset":2248388,
			"target":34962
		},
		{
			"buffer":0,
			"byteLength":425292,
			"byteOffset":2673680,
			"target":34962
		},
		{
			"buffer":0,
			"byteLength":162846,
			"byteOffset":3098972,
			"target":34963
		},
		{
			"buffer":0,
			"byteLength":3520,
			"byteOffset":3261820,
			"target":34962
		},
		{
			"buffer":0,
			"byteLength":5280,
			"byteOffset":3265340,
			"target":34962
		},
		{
			"buffer":0,
			"byteLength":5280,
			"byteOffset":3270620,
			"target":34962
		},
		{
			"buffer":0,
			"byteLength":5256,
			"byteOffset":3275900,
			"target":34963
		},
		{
			"buffer":0,
			"byteLength":78472,
			"byteOffset":3281156,
			"target":34962
		},
		{
			"buffer":0,
			"byteLength":117708,
			"byteOffset":3359628,
			"target":34962
		},
		{
			"buffer":0,
			"byteLength":117708,
			"byteOffset":3477336,
			"target":34962
		},
		{
			"buffer":0,
			"byteLength":108612,
			"byteOffset":3595044,
			"target":34963
		},
		{
			"buffer":0,
			"byteLength":145456,
			"byteOffset":3703656,
			"target":34962
		},
		{
			"buffer":0,
			"byteLength":218184,
			"byteOffset":3849112,
			"target":34962
		},
		{
			"buffer":0,
			"byteLength":218184,
			"byteOffset":4067296,
			"target":34962
		},
		{
			"buffer":0,
			"byteLength":93624,
			"byteOffset":4285480,
			"target":34963
		},
		{
			"buffer":0,
			"byteLength":101832,
			"byteOffset":4379104,
			"target":34962
		},
		{
			"buffer":0,
			"byteLength":152748,
			"byteOffset":4480936,
			"target":34962
		},
		{
			"buffer":0,
			"byteLength":152748,
			"byteOffset":4633684,
			"target":34962
		},
		{
			"buffer":0,
			"byteLength":87822,
			"byteOffset":4786432,
			"target":34963
		},
		{
			"buffer":0,
			"byteLength":9000,
			"byteOffset":4874256,
			"target":34962
		},
		{
			"buffer":0,
			"byteLength":13500,
			"byteOffset":4883256,
			"target":34962
		},
		{
			"buffer":0,
			"byteLength":13500,
			"byteOffset":4896756,
			"target":34962
		},
		{
			"buffer":0,
			"byteLength":13164,
			"byteOffset":4910256,
			"target":34963
		}
	],
	"buffers":[
		{
			"byteLength":4923420,
			"uri":"Heart_in_thoraxgltf.bin"
		}
	]
}
