{
	"asset":{
		"generator":"Khronos glTF Blender I/O v3.5.30",
		"version":"2.0"
	},
	"extensionsUsed":[
		"KHR_materials_ior",
		"KHR_materials_specular"
	],
	"scene":0,
	"scenes":[
		{
			"name":"Scene",
			"nodes":[
				0,
				1,
				2,
				3,
				4,
				5,
				6,
				7,
				8
			]
		}
	],
	"nodes":[
		{
			"mesh":0,
			"name":"Eye",
			"rotation":[
				0.01416337862610817,
				0,
				0,
				0.999899685382843
			],
			"translation":[
				0,
				0.238250732421875,
				-4.660240650177002
			]
		},
		{
			"mesh":1,
			"name":"Urinary system",
			"rotation":[
				0.01416337862610817,
				0,
				0,
				0.999899685382843
			],
			"translation":[
				0,
				0.238250732421875,
				-1.5954049825668335
			]
		},
		{
			"mesh":2,
			"name":"Digestivesystem",
			"rotation":[
				0.01416337862610817,
				0,
				0,
				0.999899685382843
			],
			"translation":[
				0,
				0.238250732421875,
				-2.4032864570617676
			]
		},
		{
			"mesh":3,
			"name":"Brain",
			"rotation":[
				0.01416337862610817,
				0,
				0,
				0.999899685382843
			],
			"translation":[
				0,
				0.238250732421875,
				-4.558360576629639
			]
		},
		{
			"mesh":4,
			"name":"Eyelash",
			"rotation":[
				0.70710688829422,
				0,
				0,
				0.7071066498756409
			],
			"translation":[
				0,
				0,
				-0.03389140963554382
			]
		},
		{
			"mesh":5,
			"name":"Gallbladder",
			"rotation":[
				0.01416337862610817,
				0,
				0,
				0.999899685382843
			],
			"translation":[
				0,
				0.238250732421875,
				-2.7839272022247314
			]
		},
		{
			"mesh":6,
			"name":"Diaphragm",
			"translation":[
				0,
				0.238250732421875,
				0
			]
		},
		{
			"mesh":7,
			"name":"Lungs",
			"rotation":[
				0.01416337862610817,
				0,
				0,
				0.999899685382843
			],
			"translation":[
				0,
				0.238250732421875,
				-4.317346572875977
			]
		},
		{
			"mesh":8,
			"name":"Liver",
			"rotation":[
				0.01416337862610817,
				0,
				0,
				0.999899685382843
			],
			"translation":[
				0,
				0.238250732421875,
				-4.117630958557129
			]
		}
	],
	"materials":[
		{
			"doubleSided":true,
			"extensions":{
				"KHR_materials_specular":{
					"specularColorFactor":[
						0,
						0,
						0
					]
				},
				"KHR_materials_ior":{
					"ior":1.4500000476837158
				}
			},
			"name":"Eye.001",
			"normalTexture":{
				"index":0,
				"scale":0
			},
			"pbrMetallicRoughness":{
				"baseColorTexture":{
					"index":1
				},
				"metallicFactor":0,
				"metallicRoughnessTexture":{
					"index":2
				}
			}
		},
		{
			"doubleSided":true,
			"extensions":{
				"KHR_materials_specular":{
					"specularColorFactor":[
						0,
						0,
						0
					]
				},
				"KHR_materials_ior":{
					"ior":1.4500000476837158
				}
			},
			"name":"system",
			"normalTexture":{
				"index":3,
				"scale":0
			},
			"pbrMetallicRoughness":{
				"baseColorTexture":{
					"index":4
				},
				"metallicFactor":0,
				"metallicRoughnessTexture":{
					"index":5
				}
			}
		},
		{
			"doubleSided":true,
			"extensions":{
				"KHR_materials_specular":{
					"specularColorFactor":[
						0,
						0,
						0
					]
				},
				"KHR_materials_ior":{
					"ior":1.4500000476837158
				}
			},
			"name":"Digestivesystem",
			"normalTexture":{
				"index":6,
				"scale":0
			},
			"pbrMetallicRoughness":{
				"baseColorTexture":{
					"index":7
				},
				"metallicFactor":0,
				"metallicRoughnessTexture":{
					"index":8
				}
			}
		},
		{
			"doubleSided":true,
			"extensions":{
				"KHR_materials_specular":{
					"specularColorFactor":[
						0,
						0,
						0
					]
				},
				"KHR_materials_ior":{
					"ior":1.4500000476837158
				}
			},
			"name":"Brain",
			"normalTexture":{
				"index":9,
				"scale":0
			},
			"pbrMetallicRoughness":{
				"baseColorTexture":{
					"index":10
				},
				"metallicFactor":0,
				"metallicRoughnessTexture":{
					"index":11
				}
			}
		},
		{
			"doubleSided":true,
			"extensions":{
				"KHR_materials_specular":{
					"specularColorFactor":[
						0,
						0,
						0
					]
				},
				"KHR_materials_ior":{
					"ior":1.4500000476837158
				}
			},
			"name":"Eyelash",
			"normalTexture":{
				"index":12,
				"scale":0
			},
			"pbrMetallicRoughness":{
				"baseColorFactor":[
					0.800000011920929,
					0.800000011920929,
					0.800000011920929,
					1
				],
				"metallicFactor":0,
				"metallicRoughnessTexture":{
					"index":13
				}
			}
		},
		{
			"doubleSided":true,
			"extensions":{
				"KHR_materials_specular":{
					"specularColorFactor":[
						0,
						0,
						0
					]
				},
				"KHR_materials_ior":{
					"ior":1.4500000476837158
				}
			},
			"name":"Gallbladder",
			"normalTexture":{
				"index":14,
				"scale":0
			},
			"pbrMetallicRoughness":{
				"baseColorTexture":{
					"index":15
				},
				"metallicFactor":0,
				"metallicRoughnessTexture":{
					"index":16
				}
			}
		},
		{
			"doubleSided":true,
			"extensions":{
				"KHR_materials_specular":{
					"specularColorFactor":[
						0,
						0,
						0
					]
				},
				"KHR_materials_ior":{
					"ior":1.4500000476837158
				}
			},
			"name":"0",
			"normalTexture":{
				"index":17,
				"scale":0
			},
			"pbrMetallicRoughness":{
				"baseColorTexture":{
					"index":18
				},
				"metallicFactor":0,
				"metallicRoughnessTexture":{
					"index":19
				}
			}
		},
		{
			"doubleSided":true,
			"extensions":{
				"KHR_materials_specular":{
					"specularColorFactor":[
						0,
						0,
						0
					]
				},
				"KHR_materials_ior":{
					"ior":1.4500000476837158
				}
			},
			"name":"1",
			"normalTexture":{
				"index":20,
				"scale":0
			},
			"pbrMetallicRoughness":{
				"baseColorTexture":{
					"index":21
				},
				"metallicFactor":0,
				"metallicRoughnessTexture":{
					"index":22
				}
			}
		},
		{
			"doubleSided":true,
			"extensions":{
				"KHR_materials_specular":{
					"specularColorFactor":[
						0,
						0,
						0
					]
				},
				"KHR_materials_ior":{
					"ior":1.4500000476837158
				}
			},
			"name":"2",
			"pbrMetallicRoughness":{
				"baseColorTexture":{
					"index":23
				},
				"metallicFactor":0
			}
		}
	],
	"meshes":[
		{
			"name":"Eye.003",
			"primitives":[
				{
					"attributes":{
						"POSITION":0,
						"TEXCOORD_0":1,
						"NORMAL":2
					},
					"indices":3,
					"material":0
				}
			]
		},
		{
			"name":"system",
			"primitives":[
				{
					"attributes":{
						"POSITION":4,
						"TEXCOORD_0":5,
						"NORMAL":6
					},
					"indices":7,
					"material":1
				}
			]
		},
		{
			"name":"Digestivesystem",
			"primitives":[
				{
					"attributes":{
						"POSITION":8,
						"TEXCOORD_0":9,
						"NORMAL":10
					},
					"indices":11,
					"material":2
				}
			]
		},
		{
			"name":"Brain",
			"primitives":[
				{
					"attributes":{
						"POSITION":12,
						"TEXCOORD_0":13,
						"NORMAL":14
					},
					"indices":15,
					"material":3
				}
			]
		},
		{
			"name":"Eyelash",
			"primitives":[
				{
					"attributes":{
						"POSITION":16,
						"TEXCOORD_0":17,
						"NORMAL":18
					},
					"indices":19,
					"material":4
				}
			]
		},
		{
			"name":"Gallbladder",
			"primitives":[
				{
					"attributes":{
						"POSITION":20,
						"TEXCOORD_0":21,
						"NORMAL":22
					},
					"indices":23,
					"material":5
				}
			]
		},
		{
			"name":"0",
			"primitives":[
				{
					"attributes":{
						"POSITION":24,
						"TEXCOORD_0":25,
						"NORMAL":26
					},
					"indices":27,
					"material":6
				}
			]
		},
		{
			"name":"1",
			"primitives":[
				{
					"attributes":{
						"POSITION":28,
						"TEXCOORD_0":29,
						"NORMAL":30
					},
					"indices":31,
					"material":7
				}
			]
		},
		{
			"name":"2",
			"primitives":[
				{
					"attributes":{
						"POSITION":32,
						"TEXCOORD_0":33,
						"NORMAL":34
					},
					"indices":35,
					"material":8
				}
			]
		}
	],
	"textures":[
		{
			"sampler":0,
			"source":0
		},
		{
			"sampler":0,
			"source":1
		},
		{
			"sampler":0,
			"source":2
		},
		{
			"sampler":0,
			"source":3
		},
		{
			"sampler":0,
			"source":4
		},
		{
			"sampler":0,
			"source":5
		},
		{
			"sampler":0,
			"source":6
		},
		{
			"sampler":0,
			"source":7
		},
		{
			"sampler":0,
			"source":8
		},
		{
			"sampler":0,
			"source":9
		},
		{
			"sampler":0,
			"source":10
		},
		{
			"sampler":0,
			"source":11
		},
		{
			"sampler":0,
			"source":12
		},
		{
			"sampler":0,
			"source":13
		},
		{
			"sampler":0,
			"source":14
		},
		{
			"sampler":0,
			"source":15
		},
		{
			"sampler":0,
			"source":16
		},
		{
			"sampler":0,
			"source":17
		},
		{
			"sampler":0,
			"source":18
		},
		{
			"sampler":0,
			"source":19
		},
		{
			"sampler":0,
			"source":20
		},
		{
			"sampler":0,
			"source":21
		},
		{
			"sampler":0,
			"source":22
		},
		{
			"sampler":0,
			"source":23
		}
	],
	"images":[
		{
			"mimeType":"image/jpeg",
			"name":"eye_Normal_DirectX",
			"uri":"eye_Normal_DirectX.jpg"
		},
		{
			"mimeType":"image/jpeg",
			"name":"eye_Albedo",
			"uri":"eye_Albedo.jpg"
		},
		{
			"mimeType":"image/png",
			"name":"eye_Roughness",
			"uri":"eye_Roughness.png"
		},
		{
			"mimeType":"image/jpeg",
			"name":"Urinary_System_Normal_DirectX",
			"uri":"Urinary_System_Normal_DirectX.jpg"
		},
		{
			"mimeType":"image/jpeg",
			"name":"Urinary_System_Albedo",
			"uri":"Urinary_System_Albedo.jpg"
		},
		{
			"mimeType":"image/png",
			"name":"Urinary_System_Roughness",
			"uri":"Urinary_System_Roughness.png"
		},
		{
			"mimeType":"image/jpeg",
			"name":"DigestiveSystem_Normal_DirectX",
			"uri":"DigestiveSystem_Normal_DirectX.jpg"
		},
		{
			"mimeType":"image/jpeg",
			"name":"DigestiveSystem_Albedo",
			"uri":"DigestiveSystem_Albedo.jpg"
		},
		{
			"mimeType":"image/png",
			"name":"DigestiveSystem_Roughness",
			"uri":"DigestiveSystem_Roughness.png"
		},
		{
			"mimeType":"image/jpeg",
			"name":"Brain_Normal_DirectX",
			"uri":"Brain_Normal_DirectX.jpg"
		},
		{
			"mimeType":"image/jpeg",
			"name":"Brain_Albedo",
			"uri":"Brain_Albedo.jpg"
		},
		{
			"mimeType":"image/png",
			"name":"Brain_Roughness",
			"uri":"Brain_Roughness.png"
		},
		{
			"mimeType":"image/jpeg",
			"name":"HumanSkin_Normal",
			"uri":"HumanSkin_Normal.jpg"
		},
		{
			"mimeType":"image/png",
			"name":"Heart_Roughness",
			"uri":"Heart_Roughness.png"
		},
		{
			"mimeType":"image/jpeg",
			"name":"Galbladder_Mat_Normal_DirectX",
			"uri":"Galbladder_Mat_Normal_DirectX.jpg"
		},
		{
			"mimeType":"image/jpeg",
			"name":"Galbladder_Mat_Albedo",
			"uri":"Galbladder_Mat_Albedo.jpg"
		},
		{
			"mimeType":"image/png",
			"name":"Galbladder_Mat_Roughness",
			"uri":"Galbladder_Mat_Roughness.png"
		},
		{
			"mimeType":"image/jpeg",
			"name":"Diafragma_Normal_DirectX",
			"uri":"Diafragma_Normal_DirectX.jpg"
		},
		{
			"mimeType":"image/jpeg",
			"name":"Diafragma_Albedo",
			"uri":"Diafragma_Albedo.jpg"
		},
		{
			"mimeType":"image/png",
			"name":"Diafragma_Roughness",
			"uri":"Diafragma_Roughness.png"
		},
		{
			"mimeType":"image/jpeg",
			"name":"lungs_LP_normal",
			"uri":"lungs_LP_normal.jpg"
		},
		{
			"mimeType":"image/jpeg",
			"name":"lungs_LP_albedo",
			"uri":"lungs_LP_albedo.jpg"
		},
		{
			"mimeType":"image/png",
			"name":"lungs_LP_roughness",
			"uri":"lungs_LP_roughness.png"
		},
		{
			"mimeType":"image/jpeg",
			"name":"Liver_Mat_Albedo",
			"uri":"Liver_Mat_Albedo.jpg"
		}
	],
	"accessors":[
		{
			"bufferView":0,
			"componentType":5126,
			"count":39006,
			"max":[
				4.670587062835693,
				161.79444885253906,
				9.370360374450684
			],
			"min":[
				-4.394239902496338,
				158.13900756835938,
				5.609789848327637
			],
			"type":"VEC3"
		},
		{
			"bufferView":1,
			"componentType":5126,
			"count":39006,
			"type":"VEC2"
		},
		{
			"bufferView":2,
			"componentType":5126,
			"count":39006,
			"type":"VEC3"
		},
		{
			"bufferView":3,
			"componentType":5123,
			"count":82812,
			"type":"SCALAR"
		},
		{
			"bufferView":4,
			"componentType":5126,
			"count":3421,
			"max":[
				7.964538097381592,
				116.90634155273438,
				2.173219919204712
			],
			"min":[
				-9.258919715881348,
				83.19879913330078,
				-4.3779778480529785
			],
			"type":"VEC3"
		},
		{
			"bufferView":5,
			"componentType":5126,
			"count":3421,
			"type":"VEC2"
		},
		{
			"bufferView":6,
			"componentType":5126,
			"count":3421,
			"type":"VEC3"
		},
		{
			"bufferView":7,
			"componentType":5123,
			"count":7008,
			"type":"SCALAR"
		},
		{
			"bufferView":8,
			"componentType":5126,
			"count":77558,
			"max":[
				10.453263282775879,
				151.4375,
				4.735620021820068
			],
			"min":[
				-11.261099815368652,
				82.88500213623047,
				-6.033745765686035
			],
			"type":"VEC3"
		},
		{
			"bufferView":9,
			"componentType":5126,
			"count":77558,
			"type":"VEC2"
		},
		{
			"bufferView":10,
			"componentType":5126,
			"count":77558,
			"type":"VEC3"
		},
		{
			"bufferView":11,
			"componentType":5125,
			"count":167937,
			"type":"SCALAR"
		},
		{
			"bufferView":12,
			"componentType":5126,
			"count":43875,
			"max":[
				6.5824689865112305,
				169.12789916992188,
				9.209739685058594
			],
			"min":[
				-6.387199878692627,
				155.39999389648438,
				-7.993063926696777
			],
			"type":"VEC3"
		},
		{
			"bufferView":13,
			"componentType":5126,
			"count":43875,
			"type":"VEC2"
		},
		{
			"bufferView":14,
			"componentType":5126,
			"count":43875,
			"type":"VEC3"
		},
		{
			"bufferView":15,
			"componentType":5123,
			"count":89760,
			"type":"SCALAR"
		},
		{
			"bufferView":16,
			"componentType":5126,
			"count":242,
			"max":[
				35.86347579956055,
				155.31427001953125,
				-1586.1400146484375
			],
			"min":[
				-56.067501068115234,
				138.18800354003906,
				-1603.1815185546875
			],
			"type":"VEC3"
		},
		{
			"bufferView":17,
			"componentType":5126,
			"count":242,
			"type":"VEC2"
		},
		{
			"bufferView":18,
			"componentType":5126,
			"count":242,
			"type":"VEC3"
		},
		{
			"bufferView":19,
			"componentType":5123,
			"count":480,
			"type":"SCALAR"
		},
		{
			"bufferView":20,
			"componentType":5126,
			"count":3345,
			"max":[
				7.464914798736572,
				116.18509674072266,
				4.5712199211120605
			],
			"min":[
				-5.123499870300293,
				107.81700134277344,
				-0.4591600000858307
			],
			"type":"VEC3"
		},
		{
			"bufferView":21,
			"componentType":5126,
			"count":3345,
			"type":"VEC2"
		},
		{
			"bufferView":22,
			"componentType":5126,
			"count":3345,
			"type":"VEC3"
		},
		{
			"bufferView":23,
			"componentType":5123,
			"count":6054,
			"type":"SCALAR"
		},
		{
			"bufferView":24,
			"componentType":5126,
			"count":6837,
			"max":[
				11.673075675964355,
				126.53178405761719,
				6.282589912414551
			],
			"min":[
				-12.497900009155273,
				115.1729965209961,
				-6.871492862701416
			],
			"type":"VEC3"
		},
		{
			"bufferView":25,
			"componentType":5126,
			"count":6837,
			"type":"VEC2"
		},
		{
			"bufferView":26,
			"componentType":5126,
			"count":6837,
			"type":"VEC3"
		},
		{
			"bufferView":27,
			"componentType":5123,
			"count":14166,
			"type":"SCALAR"
		},
		{
			"bufferView":28,
			"componentType":5126,
			"count":7943,
			"max":[
				12.170904159545898,
				146.3356170654297,
				5.896989822387695
			],
			"min":[
				-12.563199996948242,
				120.64600372314453,
				-9.7889986038208
			],
			"type":"VEC3"
		},
		{
			"bufferView":29,
			"componentType":5126,
			"count":7943,
			"type":"VEC2"
		},
		{
			"bufferView":30,
			"componentType":5126,
			"count":7943,
			"type":"VEC3"
		},
		{
			"bufferView":31,
			"componentType":5123,
			"count":16530,
			"type":"SCALAR"
		},
		{
			"bufferView":32,
			"componentType":5126,
			"count":1396,
			"max":[
				5.435575008392334,
				121.48120880126953,
				6.571410179138184
			],
			"min":[
				-11.062999725341797,
				108.02799987792969,
				-3.731100082397461
			],
			"type":"VEC3"
		},
		{
			"bufferView":33,
			"componentType":5126,
			"count":1396,
			"type":"VEC2"
		},
		{
			"bufferView":34,
			"componentType":5126,
			"count":1396,
			"type":"VEC3"
		},
		{
			"bufferView":35,
			"componentType":5123,
			"count":2826,
			"type":"SCALAR"
		}
	],
	"bufferViews":[
		{
			"buffer":0,
			"byteLength":468072,
			"byteOffset":0,
			"target":34962
		},
		{
			"buffer":0,
			"byteLength":312048,
			"byteOffset":468072,
			"target":34962
		},
		{
			"buffer":0,
			"byteLength":468072,
			"byteOffset":780120,
			"target":34962
		},
		{
			"buffer":0,
			"byteLength":165624,
			"byteOffset":1248192,
			"target":34963
		},
		{
			"buffer":0,
			"byteLength":41052,
			"byteOffset":1413816,
			"target":34962
		},
		{
			"buffer":0,
			"byteLength":27368,
			"byteOffset":1454868,
			"target":34962
		},
		{
			"buffer":0,
			"byteLength":41052,
			"byteOffset":1482236,
			"target":34962
		},
		{
			"buffer":0,
			"byteLength":14016,
			"byteOffset":1523288,
			"target":34963
		},
		{
			"buffer":0,
			"byteLength":930696,
			"byteOffset":1537304,
			"target":34962
		},
		{
			"buffer":0,
			"byteLength":620464,
			"byteOffset":2468000,
			"target":34962
		},
		{
			"buffer":0,
			"byteLength":930696,
			"byteOffset":3088464,
			"target":34962
		},
		{
			"buffer":0,
			"byteLength":671748,
			"byteOffset":4019160,
			"target":34963
		},
		{
			"buffer":0,
			"byteLength":526500,
			"byteOffset":4690908,
			"target":34962
		},
		{
			"buffer":0,
			"byteLength":351000,
			"byteOffset":5217408,
			"target":34962
		},
		{
			"buffer":0,
			"byteLength":526500,
			"byteOffset":5568408,
			"target":34962
		},
		{
			"buffer":0,
			"byteLength":179520,
			"byteOffset":6094908,
			"target":34963
		},
		{
			"buffer":0,
			"byteLength":2904,
			"byteOffset":6274428,
			"target":34962
		},
		{
			"buffer":0,
			"byteLength":1936,
			"byteOffset":6277332,
			"target":34962
		},
		{
			"buffer":0,
			"byteLength":2904,
			"byteOffset":6279268,
			"target":34962
		},
		{
			"buffer":0,
			"byteLength":960,
			"byteOffset":6282172,
			"target":34963
		},
		{
			"buffer":0,
			"byteLength":40140,
			"byteOffset":6283132,
			"target":34962
		},
		{
			"buffer":0,
			"byteLength":26760,
			"byteOffset":6323272,
			"target":34962
		},
		{
			"buffer":0,
			"byteLength":40140,
			"byteOffset":6350032,
			"target":34962
		},
		{
			"buffer":0,
			"byteLength":12108,
			"byteOffset":6390172,
			"target":34963
		},
		{
			"buffer":0,
			"byteLength":82044,
			"byteOffset":6402280,
			"target":34962
		},
		{
			"buffer":0,
			"byteLength":54696,
			"byteOffset":6484324,
			"target":34962
		},
		{
			"buffer":0,
			"byteLength":82044,
			"byteOffset":6539020,
			"target":34962
		},
		{
			"buffer":0,
			"byteLength":28332,
			"byteOffset":6621064,
			"target":34963
		},
		{
			"buffer":0,
			"byteLength":95316,
			"byteOffset":6649396,
			"target":34962
		},
		{
			"buffer":0,
			"byteLength":63544,
			"byteOffset":6744712,
			"target":34962
		},
		{
			"buffer":0,
			"byteLength":95316,
			"byteOffset":6808256,
			"target":34962
		},
		{
			"buffer":0,
			"byteLength":33060,
			"byteOffset":6903572,
			"target":34963
		},
		{
			"buffer":0,
			"byteLength":16752,
			"byteOffset":6936632,
			"target":34962
		},
		{
			"buffer":0,
			"byteLength":11168,
			"byteOffset":6953384,
			"target":34962
		},
		{
			"buffer":0,
			"byteLength":16752,
			"byteOffset":6964552,
			"target":34962
		},
		{
			"buffer":0,
			"byteLength":5652,
			"byteOffset":6981304,
			"target":34963
		}
	],
	"samplers":[
		{
			"magFilter":9729,
			"minFilter":9987
		}
	],
	"buffers":[
		{
			"byteLength":6986956,
			"uri":"organs.bin"
		}
	]
}
