{
  "accessors": [
    {
      "bufferView": 2,
      "componentType": 5126,
      "count": 17351,
      "max": [
        0.05238954722881317,
        0.08338415622711182,
        0.10647109150886536
      ],
      "min": [
        -0.032433804124593735,
        -0.06412237882614136,
        -0.10976256430149078
      ],
      "type": "VEC3"
    },
    {
      "bufferView": 2,
      "byteOffset": 208212,
      "componentType": 5126,
      "count": 17351,
      "max": [
        0.9999974966049194,
        0.9993896484375,
        0.9996389150619507
      ],
      "min": [
        -0.9998981952667236,
        -0.9999727010726929,
        -0.9996430277824402
      ],
      "type": "VEC3"
    },
    {
      "bufferView": 1,
      "componentType": 5126,
      "count": 17351,
      "max": [
        0.9985570311546326,
        0.9985569715499878
      ],
      "min": [
        0.0014430034207180142,
        0.005895376205444336
      ],
      "type": "VEC2"
    },
    {
      "bufferView": 0,
      "componentType": 5125,
      "count": 97638,
      "type": "SCALAR"
    }
  ],
  "asset": {
    "extras": {
      "author": "ScienceLifeNY (https://sketchfab.com/ScienceLifeNY)",
      "license": "CC-BY-4.0 (http://creativecommons.org/licenses/by/4.0/)",
      "source": "https://sketchfab.com/3d-models/honey-comb-lung-interstitial-lung-disease-a1ac2857a6224880a77f1ab57d60d03b",
      "title": "Honey comb lung, Interstitial lung disease"
    },
    "generator": "Sketchfab-12.67.0",
    "version": "2.0"
  },
  "bufferViews": [
    {
      "buffer": 0,
      "byteLength": 390552,
      "name": "floatBufferViews",
      "target": 34963
    },
    {
      "buffer": 0,
      "byteLength": 138808,
      "byteOffset": 390552,
      "byteStride": 8,
      "name": "floatBufferViews",
      "target": 34962
    },
    {
      "buffer": 0,
      "byteLength": 416424,
      "byteOffset": 529360,
      "byteStride": 12,
      "name": "floatBufferViews",
      "target": 34962
    }
  ],
  "buffers": [
    {
      "byteLength": 945784,
      "uri": "scene.bin"
    }
  ],
  "extensionsUsed": [
    "KHR_materials_unlit"
  ],
  "images": [
    {
      "uri": "textures/material_0_baseColor.jpeg"
    }
  ],
  "materials": [
    {
      "doubleSided": true,
      "extensions": {
        "KHR_materials_unlit": {}
      },
      "name": "material_0",
      "pbrMetallicRoughness": {
        "baseColorTexture": {
          "index": 0
        },
        "metallicFactor": 0.0
      }
    }
  ],
  "meshes": [
    {
      "name": "Object_0",
      "primitives": [
        {
          "attributes": {
            "NORMAL": 1,
            "POSITION": 0,
            "TEXCOORD_0": 2
          },
          "indices": 3,
          "material": 0,
          "mode": 4
        }
      ]
    }
  ],
  "nodes": [
    {
      "children": [
        1
      ],
      "matrix": [
        1.0,
        0.0,
        0.0,
        0.0,
        0.0,
        2.220446049250313e-16,
        -1.0,
        0.0,
        0.0,
        1.0,
        2.220446049250313e-16,
        0.0,
        0.0,
        0.0,
        0.0,
        1.0
      ],
      "name": "Sketchfab_model"
    },
    {
      "children": [
        2
      ],
      "name": "model_mesh.obj.cleaner.gles"
    },
    {
      "mesh": 0,
      "name": "Object_2"
    }
  ],
  "samplers": [
    {
      "magFilter": 9729,
      "minFilter": 9987,
      "wrapS": 10497,
      "wrapT": 10497
    }
  ],
  "scene": 0,
  "scenes": [
    {
      "name": "Sketchfab_Scene",
      "nodes": [
        0
      ]
    }
  ],
  "textures": [
    {
      "sampler": 0,
      "source": 0
    }
  ]
}
