{
	"asset":{
		"generator":"Khronos glTF Blender I/O v3.5.30",
		"version":"2.0"
	},
	"extensionsUsed":[
		"KHR_materials_ior",
		"KHR_materials_specular"
	],
	"scene":0,
	"scenes":[
		{
			"name":"Scene",
			"nodes":[
				0,
				1,
				2
			]
		}
	],
	"nodes":[
		{
			"mesh":0,
			"name":"Artery"
		},
		{
			"mesh":1,
			"name":"Vein"
		},
		{
			"mesh":2,
			"name":"Heart",
			"rotation":[
				0.2761297821998596,
				0,
				0,
				0.9611203670501709
			],
			"scale":[
				80,
				80,
				80
			],
			"translation":[
				2.1832048892974854,
				131.94459533691406,
				-2.8450849056243896
			]
		}
	],
	"materials":[
		{
			"doubleSided":true,
			"extensions":{
				"KHR_materials_specular":{
					"specularColorFactor":[
						0,
						0,
						0
					]
				},
				"KHR_materials_ior":{
					"ior":1.4500000476837158
				}
			},
			"name":"7.002",
			"normalTexture":{
				"index":0,
				"scale":0
			},
			"pbrMetallicRoughness":{
				"baseColorTexture":{
					"index":1
				},
				"metallicFactor":0,
				"metallicRoughnessTexture":{
					"index":2
				}
			}
		},
		{
			"doubleSided":true,
			"extensions":{
				"KHR_materials_specular":{
					"specularColorFactor":[
						0,
						0,
						0
					]
				},
				"KHR_materials_ior":{
					"ior":1.4500000476837158
				}
			},
			"name":"8.001",
			"normalTexture":{
				"index":3,
				"scale":0
			},
			"pbrMetallicRoughness":{
				"baseColorTexture":{
					"index":4
				},
				"metallicFactor":0,
				"metallicRoughnessTexture":{
					"index":5
				}
			}
		},
		{
			"doubleSided":true,
			"extensions":{
				"KHR_materials_specular":{
					"specularColorFactor":[
						0,
						0,
						0
					]
				},
				"KHR_materials_ior":{
					"ior":1.4500000476837158
				}
			},
			"name":"11.001",
			"normalTexture":{
				"index":6,
				"scale":0
			},
			"pbrMetallicRoughness":{
				"baseColorTexture":{
					"index":7
				},
				"metallicFactor":0,
				"metallicRoughnessTexture":{
					"index":8
				}
			}
		}
	],
	"meshes":[
		{
			"name":"7.002",
			"primitives":[
				{
					"attributes":{
						"POSITION":0,
						"TEXCOORD_0":1,
						"NORMAL":2
					},
					"indices":3,
					"material":0
				}
			]
		},
		{
			"name":"8.001",
			"primitives":[
				{
					"attributes":{
						"POSITION":4,
						"TEXCOORD_0":5,
						"NORMAL":6
					},
					"indices":7,
					"material":1
				}
			]
		},
		{
			"name":"11.001",
			"primitives":[
				{
					"attributes":{
						"POSITION":8,
						"TEXCOORD_0":9,
						"NORMAL":10
					},
					"indices":11,
					"material":2
				}
			]
		}
	],
	"textures":[
		{
			"sampler":0,
			"source":0
		},
		{
			"sampler":0,
			"source":1
		},
		{
			"sampler":0,
			"source":2
		},
		{
			"sampler":0,
			"source":0
		},
		{
			"sampler":0,
			"source":1
		},
		{
			"sampler":0,
			"source":2
		},
		{
			"sampler":0,
			"source":3
		},
		{
			"sampler":0,
			"source":4
		},
		{
			"sampler":0,
			"source":5
		}
	],
	"images":[
		{
			"mimeType":"image/jpeg",
			"name":"CirculatorySystem_normal",
			"uri":"CirculatorySystem_normal.jpg"
		},
		{
			"mimeType":"image/jpeg",
			"name":"CirculatorySystem_albedo",
			"uri":"CirculatorySystem_albedo.jpg"
		},
		{
			"mimeType":"image/png",
			"name":"CirculatorySystem_roughness",
			"uri":"CirculatorySystem_roughness.png"
		},
		{
			"mimeType":"image/jpeg",
			"name":"Heart_Normal_DirectX",
			"uri":"Heart_Normal_DirectX.jpg"
		},
		{
			"mimeType":"image/jpeg",
			"name":"Heart_Albedo",
			"uri":"Heart_Albedo.jpg"
		},
		{
			"mimeType":"image/png",
			"name":"Heart_Roughness",
			"uri":"Heart_Roughness.png"
		}
	],
	"accessors":[
		{
			"bufferView":0,
			"componentType":5126,
			"count":34068,
			"max":[
				25.952056884765625,
				169.80616760253906,
				10.421199798583984
			],
			"min":[
				-26.5447998046875,
				0.7246620059013367,
				-11.003945350646973
			],
			"type":"VEC3"
		},
		{
			"bufferView":1,
			"componentType":5126,
			"count":34068,
			"type":"VEC2"
		},
		{
			"bufferView":2,
			"componentType":5126,
			"count":34068,
			"type":"VEC3"
		},
		{
			"bufferView":3,
			"componentType":5123,
			"count":68400,
			"type":"SCALAR"
		},
		{
			"bufferView":4,
			"componentType":5126,
			"count":38026,
			"max":[
				28.57834243774414,
				168.47572326660156,
				10.184800148010254
			],
			"min":[
				-28.947999954223633,
				0.9114980101585388,
				-12.247971534729004
			],
			"type":"VEC3"
		},
		{
			"bufferView":5,
			"componentType":5126,
			"count":38026,
			"type":"VEC2"
		},
		{
			"bufferView":6,
			"componentType":5126,
			"count":38026,
			"type":"VEC3"
		},
		{
			"bufferView":7,
			"componentType":5123,
			"count":76590,
			"type":"SCALAR"
		},
		{
			"bufferView":8,
			"componentType":5126,
			"count":7538,
			"max":[
				0.04188000038266182,
				0.07144799828529358,
				0.05818299949169159
			],
			"min":[
				-0.04557399824261665,
				-0.07442700117826462,
				-0.059393998235464096
			],
			"type":"VEC3"
		},
		{
			"bufferView":9,
			"componentType":5126,
			"count":7538,
			"type":"VEC2"
		},
		{
			"bufferView":10,
			"componentType":5126,
			"count":7538,
			"type":"VEC3"
		},
		{
			"bufferView":11,
			"componentType":5123,
			"count":24006,
			"type":"SCALAR"
		}
	],
	"bufferViews":[
		{
			"buffer":0,
			"byteLength":408816,
			"byteOffset":0,
			"target":34962
		},
		{
			"buffer":0,
			"byteLength":272544,
			"byteOffset":408816,
			"target":34962
		},
		{
			"buffer":0,
			"byteLength":408816,
			"byteOffset":681360,
			"target":34962
		},
		{
			"buffer":0,
			"byteLength":136800,
			"byteOffset":1090176,
			"target":34963
		},
		{
			"buffer":0,
			"byteLength":456312,
			"byteOffset":1226976,
			"target":34962
		},
		{
			"buffer":0,
			"byteLength":304208,
			"byteOffset":1683288,
			"target":34962
		},
		{
			"buffer":0,
			"byteLength":456312,
			"byteOffset":1987496,
			"target":34962
		},
		{
			"buffer":0,
			"byteLength":153180,
			"byteOffset":2443808,
			"target":34963
		},
		{
			"buffer":0,
			"byteLength":90456,
			"byteOffset":2596988,
			"target":34962
		},
		{
			"buffer":0,
			"byteLength":60304,
			"byteOffset":2687444,
			"target":34962
		},
		{
			"buffer":0,
			"byteLength":90456,
			"byteOffset":2747748,
			"target":34962
		},
		{
			"buffer":0,
			"byteLength":48012,
			"byteOffset":2838204,
			"target":34963
		}
	],
	"samplers":[
		{
			"magFilter":9729,
			"minFilter":9987
		}
	],
	"buffers":[
		{
			"byteLength":2886216,
			"uri":"vein_artery_heart.bin"
		}
	]
}
