{
	"asset":{
		"generator":"Khronos glTF Blender I/O v3.5.30",
		"version":"2.0"
	},
	"extensionsUsed":[
		"KHR_materials_ior"
	],
	"scene":0,
	"scenes":[
		{
			"name":"Scene",
			"nodes":[
				0,
				1,
				2,
				3,
				4,
				5
			]
		}
	],
	"nodes":[
		{
			"mesh":0,
			"name":"Sternum",
			"translation":[
				0,
				0,
				-0.31261613965034485
			]
		},
		{
			"mesh":1,
			"name":"Legs",
			"rotation":[
				0.70710688829422,
				0,
				0,
				0.7071066498756409
			],
			"translation":[
				1.0094845294952393,
				0,
				-5.571525573730469
			]
		},
		{
			"mesh":2,
			"name":"Hands",
			"rotation":[
				0.70710688829422,
				0,
				0,
				0.7071066498756409
			],
			"translation":[
				0.5757777094841003,
				0,
				-5.119532108306885
			]
		},
		{
			"mesh":3,
			"name":"Spine",
			"rotation":[
				0.70710688829422,
				0,
				0,
				0.7071066498756409
			],
			"translation":[
				0,
				0,
				-4.227256774902344
			]
		},
		{
			"mesh":4,
			"name":"Pelvis",
			"rotation":[
				0.70710688829422,
				0,
				0,
				0.7071066498756409
			],
			"translation":[
				0.6849831342697144,
				0,
				-5.058298587799072
			]
		},
		{
			"mesh":5,
			"name":"Skull",
			"rotation":[
				0.70710688829422,
				0,
				0,
				0.7071066498756409
			],
			"translation":[
				0.9863569736480713,
				0,
				-5.506967067718506
			]
		}
	],
	"materials":[
		{
			"doubleSided":true,
			"extensions":{
				"KHR_materials_specular":{
					"specularColorFactor":[
						0,
						0,
						0
					]
				},
				"KHR_materials_ior":{
					"ior":1.4500000476837158
				}
			},
			"name":"3.002",
			"normalTexture":{
				"index":0,
				"scale":0
			},
			"pbrMetallicRoughness":{
				"baseColorTexture":{
					"index":1
				},
				"metallicFactor":0,
				"metallicRoughnessTexture":{
					"index":2
				}
			}
		},
		{
			"doubleSided":true,
			"extensions":{
				"KHR_materials_specular":{
					"specularColorFactor":[
						0,
						0,
						0
					]
				},
				"KHR_materials_ior":{
					"ior":1.4500000476837158
				}
			},
			"name":"Legs.001",
			"normalTexture":{
				"index":3,
				"scale":0
			},
			"pbrMetallicRoughness":{
				"baseColorTexture":{
					"index":4
				},
				"metallicFactor":0,
				"metallicRoughnessTexture":{
					"index":5
				}
			}
		},
		{
			"doubleSided":true,
			"extensions":{
				"KHR_materials_specular":{
					"specularColorFactor":[
						0,
						0,
						0
					]
				},
				"KHR_materials_ior":{
					"ior":1.4500000476837158
				}
			},
			"name":"Hands.001",
			"normalTexture":{
				"index":6,
				"scale":0
			},
			"pbrMetallicRoughness":{
				"baseColorTexture":{
					"index":7
				},
				"metallicFactor":0,
				"metallicRoughnessTexture":{
					"index":8
				}
			}
		},
		{
			"doubleSided":true,
			"extensions":{
				"KHR_materials_specular":{
					"specularColorFactor":[
						0,
						0,
						0
					]
				},
				"KHR_materials_ior":{
					"ior":1.4500000476837158
				}
			},
			"name":"Spine.001",
			"normalTexture":{
				"index":9,
				"scale":0
			},
			"pbrMetallicRoughness":{
				"baseColorTexture":{
					"index":10
				},
				"metallicFactor":0,
				"metallicRoughnessTexture":{
					"index":11
				}
			}
		},
		{
			"doubleSided":true,
			"extensions":{
				"KHR_materials_specular":{
					"specularColorFactor":[
						0,
						0,
						0
					]
				},
				"KHR_materials_ior":{
					"ior":1.4500000476837158
				}
			},
			"name":"Pelvis.001",
			"normalTexture":{
				"index":12,
				"scale":0
			},
			"pbrMetallicRoughness":{
				"baseColorTexture":{
					"index":13
				},
				"metallicFactor":0,
				"metallicRoughnessTexture":{
					"index":14
				}
			}
		},
		{
			"doubleSided":true,
			"extensions":{
				"KHR_materials_specular":{
					"specularColorFactor":[
						0,
						0,
						0
					]
				},
				"KHR_materials_ior":{
					"ior":1.4500000476837158
				}
			},
			"name":"Skull.001",
			"normalTexture":{
				"index":15,
				"scale":0
			},
			"pbrMetallicRoughness":{
				"baseColorTexture":{
					"index":16
				},
				"metallicFactor":0,
				"metallicRoughnessTexture":{
					"index":17
				}
			}
		}
	],
	"meshes":[
		{
			"name":"3.002",
			"primitives":[
				{
					"attributes":{
						"POSITION":0,
						"TEXCOORD_0":1,
						"NORMAL":2
					},
					"indices":3,
					"material":0
				}
			]
		},
		{
			"name":"Legs.001",
			"primitives":[
				{
					"attributes":{
						"POSITION":4,
						"TEXCOORD_0":5,
						"NORMAL":6
					},
					"indices":7,
					"material":1
				}
			]
		},
		{
			"name":"Hands.001",
			"primitives":[
				{
					"attributes":{
						"POSITION":8,
						"TEXCOORD_0":9,
						"NORMAL":10
					},
					"indices":11,
					"material":2
				}
			]
		},
		{
			"name":"Spine.001",
			"primitives":[
				{
					"attributes":{
						"POSITION":12,
						"TEXCOORD_0":13,
						"NORMAL":14
					},
					"indices":15,
					"material":3
				}
			]
		},
		{
			"name":"Pelvis.001",
			"primitives":[
				{
					"attributes":{
						"POSITION":16,
						"TEXCOORD_0":17,
						"NORMAL":18
					},
					"indices":19,
					"material":4
				}
			]
		},
		{
			"name":"Skull.001",
			"primitives":[
				{
					"attributes":{
						"POSITION":20,
						"TEXCOORD_0":21,
						"NORMAL":22
					},
					"indices":23,
					"material":5
				}
			]
		}
	],
	"textures":[
		{
			"sampler":0,
			"source":0
		},
		{
			"sampler":0,
			"source":1
		},
		{
			"sampler":0,
			"source":2
		},
		{
			"sampler":0,
			"source":3
		},
		{
			"sampler":0,
			"source":4
		},
		{
			"sampler":0,
			"source":5
		},
		{
			"sampler":0,
			"source":6
		},
		{
			"sampler":0,
			"source":7
		},
		{
			"sampler":0,
			"source":8
		},
		{
			"sampler":0,
			"source":9
		},
		{
			"sampler":0,
			"source":10
		},
		{
			"sampler":0,
			"source":11
		},
		{
			"sampler":0,
			"source":12
		},
		{
			"sampler":0,
			"source":13
		},
		{
			"sampler":0,
			"source":14
		},
		{
			"sampler":0,
			"source":15
		},
		{
			"sampler":0,
			"source":16
		},
		{
			"sampler":0,
			"source":17
		}
	],
	"images":[
		{
			"mimeType":"image/jpeg",
			"name":"Ribcage_Normal_DirectX",
			"uri":"Ribcage_Normal_DirectX.jpg"
		},
		{
			"mimeType":"image/jpeg",
			"name":"Ribcage_Albedo",
			"uri":"Ribcage_Albedo.jpg"
		},
		{
			"mimeType":"image/png",
			"name":"Ribcage_Roughness",
			"uri":"Ribcage_Roughness.png"
		},
		{
			"mimeType":"image/jpeg",
			"name":"Legs_Normal_DirectX",
			"uri":"Legs_Normal_DirectX.jpg"
		},
		{
			"mimeType":"image/jpeg",
			"name":"Legs_Albedo",
			"uri":"Legs_Albedo.jpg"
		},
		{
			"mimeType":"image/png",
			"name":"Legs_Roughness",
			"uri":"Legs_Roughness.png"
		},
		{
			"mimeType":"image/jpeg",
			"name":"Hands_Normal_DirectX",
			"uri":"Hands_Normal_DirectX.jpg"
		},
		{
			"mimeType":"image/jpeg",
			"name":"Hands_Albedo",
			"uri":"Hands_Albedo.jpg"
		},
		{
			"mimeType":"image/png",
			"name":"Hands_Roughness",
			"uri":"Hands_Roughness.png"
		},
		{
			"mimeType":"image/jpeg",
			"name":"Spine_Normal_DirectX",
			"uri":"Spine_Normal_DirectX.jpg"
		},
		{
			"mimeType":"image/jpeg",
			"name":"Spine_Albedo",
			"uri":"Spine_Albedo.jpg"
		},
		{
			"mimeType":"image/png",
			"name":"Spine_Roughness",
			"uri":"Spine_Roughness.png"
		},
		{
			"mimeType":"image/jpeg",
			"name":"Pelvis_Normal_DirectX",
			"uri":"Pelvis_Normal_DirectX.jpg"
		},
		{
			"mimeType":"image/jpeg",
			"name":"Pelvis_Albedo",
			"uri":"Pelvis_Albedo.jpg"
		},
		{
			"mimeType":"image/png",
			"name":"Pelvis_Roughness",
			"uri":"Pelvis_Roughness.png"
		},
		{
			"mimeType":"image/jpeg",
			"name":"Skull_Normal_DirectX",
			"uri":"Skull_Normal_DirectX.jpg"
		},
		{
			"mimeType":"image/jpeg",
			"name":"Skull_Albedo",
			"uri":"Skull_Albedo.jpg"
		},
		{
			"mimeType":"image/png",
			"name":"Skull_Roughness",
			"uri":"Skull_Roughness.png"
		}
	],
	"accessors":[
		{
			"bufferView":0,
			"componentType":5126,
			"count":27169,
			"max":[
				13.802298545837402,
				144.62628173828125,
				7.943709850311279
			],
			"min":[
				-14.459500312805176,
				110.66100311279297,
				-10.342635154724121
			],
			"type":"VEC3"
		},
		{
			"bufferView":1,
			"componentType":5126,
			"count":27169,
			"type":"VEC2"
		},
		{
			"bufferView":2,
			"componentType":5126,
			"count":27169,
			"type":"VEC3"
		},
		{
			"bufferView":3,
			"componentType":5123,
			"count":55038,
			"type":"SCALAR"
		},
		{
			"bufferView":4,
			"componentType":5126,
			"count":16583,
			"max":[
				14.372969627380371,
				14.219684600830078,
				-0.7532550096511841
			],
			"min":[
				-16.85450553894043,
				-7.6996169090271,
				-90.41233825683594
			],
			"type":"VEC3"
		},
		{
			"bufferView":5,
			"componentType":5126,
			"count":16583,
			"type":"VEC2"
		},
		{
			"bufferView":6,
			"componentType":5126,
			"count":16583,
			"type":"VEC3"
		},
		{
			"bufferView":7,
			"componentType":5123,
			"count":33036,
			"type":"SCALAR"
		},
		{
			"bufferView":8,
			"componentType":5126,
			"count":13843,
			"max":[
				26.354747772216797,
				10.97525691986084,
				-66.62218475341797
			],
			"min":[
				-28.39530372619629,
				-7.054096221923828,
				-143.0309600830078
			],
			"type":"VEC3"
		},
		{
			"bufferView":9,
			"componentType":5126,
			"count":13843,
			"type":"VEC2"
		},
		{
			"bufferView":10,
			"componentType":5126,
			"count":13843,
			"type":"VEC3"
		},
		{
			"bufferView":11,
			"componentType":5123,
			"count":26604,
			"type":"SCALAR"
		},
		{
			"bufferView":12,
			"componentType":5126,
			"count":53061,
			"max":[
				4.66098690032959,
				5.699258804321289,
				-84.80329895019531
			],
			"min":[
				-6.984994888305664,
				-8.051044464111328,
				-155.84744262695312
			],
			"type":"VEC3"
		},
		{
			"bufferView":13,
			"componentType":5126,
			"count":53061,
			"type":"VEC2"
		},
		{
			"bufferView":14,
			"componentType":5126,
			"count":53061,
			"type":"VEC3"
		},
		{
			"bufferView":15,
			"componentType":5123,
			"count":99498,
			"type":"SCALAR"
		},
		{
			"bufferView":16,
			"componentType":5126,
			"count":7521,
			"max":[
				12.192893981933594,
				10.286162376403809,
				-81.90709686279297
			],
			"min":[
				-14.65910530090332,
				-4.96229887008667,
				-103.70958709716797
			],
			"type":"VEC3"
		},
		{
			"bufferView":17,
			"componentType":5126,
			"count":7521,
			"type":"VEC2"
		},
		{
			"bufferView":18,
			"componentType":5126,
			"count":7521,
			"type":"VEC3"
		},
		{
			"bufferView":19,
			"componentType":5123,
			"count":14664,
			"type":"SCALAR"
		},
		{
			"bufferView":20,
			"componentType":5126,
			"count":13723,
			"max":[
				6.047338008880615,
				16.08966827392578,
				-148.7952423095703
			],
			"min":[
				-7.791814804077148,
				-3.279836893081665,
				-169.95652770996094
			],
			"type":"VEC3"
		},
		{
			"bufferView":21,
			"componentType":5126,
			"count":13723,
			"type":"VEC2"
		},
		{
			"bufferView":22,
			"componentType":5126,
			"count":13723,
			"type":"VEC3"
		},
		{
			"bufferView":23,
			"componentType":5123,
			"count":26988,
			"type":"SCALAR"
		}
	],
	"bufferViews":[
		{
			"buffer":0,
			"byteLength":326028,
			"byteOffset":0,
			"target":34962
		},
		{
			"buffer":0,
			"byteLength":217352,
			"byteOffset":326028,
			"target":34962
		},
		{
			"buffer":0,
			"byteLength":326028,
			"byteOffset":543380,
			"target":34962
		},
		{
			"buffer":0,
			"byteLength":110076,
			"byteOffset":869408,
			"target":34963
		},
		{
			"buffer":0,
			"byteLength":198996,
			"byteOffset":979484,
			"target":34962
		},
		{
			"buffer":0,
			"byteLength":132664,
			"byteOffset":1178480,
			"target":34962
		},
		{
			"buffer":0,
			"byteLength":198996,
			"byteOffset":1311144,
			"target":34962
		},
		{
			"buffer":0,
			"byteLength":66072,
			"byteOffset":1510140,
			"target":34963
		},
		{
			"buffer":0,
			"byteLength":166116,
			"byteOffset":1576212,
			"target":34962
		},
		{
			"buffer":0,
			"byteLength":110744,
			"byteOffset":1742328,
			"target":34962
		},
		{
			"buffer":0,
			"byteLength":166116,
			"byteOffset":1853072,
			"target":34962
		},
		{
			"buffer":0,
			"byteLength":53208,
			"byteOffset":2019188,
			"target":34963
		},
		{
			"buffer":0,
			"byteLength":636732,
			"byteOffset":2072396,
			"target":34962
		},
		{
			"buffer":0,
			"byteLength":424488,
			"byteOffset":2709128,
			"target":34962
		},
		{
			"buffer":0,
			"byteLength":636732,
			"byteOffset":3133616,
			"target":34962
		},
		{
			"buffer":0,
			"byteLength":198996,
			"byteOffset":3770348,
			"target":34963
		},
		{
			"buffer":0,
			"byteLength":90252,
			"byteOffset":3969344,
			"target":34962
		},
		{
			"buffer":0,
			"byteLength":60168,
			"byteOffset":4059596,
			"target":34962
		},
		{
			"buffer":0,
			"byteLength":90252,
			"byteOffset":4119764,
			"target":34962
		},
		{
			"buffer":0,
			"byteLength":29328,
			"byteOffset":4210016,
			"target":34963
		},
		{
			"buffer":0,
			"byteLength":164676,
			"byteOffset":4239344,
			"target":34962
		},
		{
			"buffer":0,
			"byteLength":109784,
			"byteOffset":4404020,
			"target":34962
		},
		{
			"buffer":0,
			"byteLength":164676,
			"byteOffset":4513804,
			"target":34962
		},
		{
			"buffer":0,
			"byteLength":53976,
			"byteOffset":4678480,
			"target":34963
		}
	],
	"samplers":[
		{
			"magFilter":9729,
			"minFilter":9987
		}
	],
	"buffers":[
		{
			"byteLength":4732456,
			"uri":"skeleton.bin"
		}
	]
}
