{
	"asset":{
		"generator":"Khronos glTF Blender I/O v3.5.30",
		"version":"2.0"
	},
	"scene":0,
	"scenes":[
		{
			"name":"Scene",
			"nodes":[
				2
			]
		}
	],
	"nodes":[
		{
			"mesh":0,
			"name":"Polycystic kidney"
		},
		{
			"children":[
				0
			],
			"name":"polycystic kidney for sketchfab.OBJ.cleaner.materialmerger.gles"
		},
		{
			"children":[
				1
			],
			"name":"Sketchfab_model",
			"rotation":[
				-0.4873998761177063,
				-0.6114506721496582,
				-0.38006484508514404,
				0.4940852224826813
			],
			"translation":[
				0.38841187953948975,
				-0.08892419934272766,
				-1.0980219841003418
			]
		}
	],
	"materials":[
		{
			"doubleSided":true,
			"name":"material_0",
			"pbrMetallicRoughness":{
				"metallicFactor":0,
				"roughnessFactor":0.20000000298023224
			}
		}
	],
	"meshes":[
		{
			"name":"Object_3",
			"primitives":[
				{
					"attributes":{
						"COLOR_0":0,
						"POSITION":1,
						"NORMAL":2
					},
					"indices":3,
					"material":0
				}
			]
		}
	],
	"accessors":[
		{
			"bufferView":0,
			"componentType":5123,
			"count":462222,
			"normalized":true,
			"type":"VEC4"
		},
		{
			"bufferView":1,
			"componentType":5126,
			"count":462222,
			"max":[
				3.0609986782073975,
				2.979069709777832,
				5.042970657348633
			],
			"min":[
				-1.6557625532150269,
				-2.050701856613159,
				-4.140817165374756
			],
			"type":"VEC3"
		},
		{
			"bufferView":2,
			"componentType":5126,
			"count":462222,
			"type":"VEC3"
		},
		{
			"bufferView":3,
			"componentType":5125,
			"count":2579679,
			"type":"SCALAR"
		}
	],
	"bufferViews":[
		{
			"buffer":0,
			"byteLength":3697776,
			"byteOffset":0,
			"target":34962
		},
		{
			"buffer":0,
			"byteLength":5546664,
			"byteOffset":3697776,
			"target":34962
		},
		{
			"buffer":0,
			"byteLength":5546664,
			"byteOffset":9244440,
			"target":34962
		},
		{
			"buffer":0,
			"byteLength":10318716,
			"byteOffset":14791104,
			"target":34963
		}
	],
	"buffers":[
		{
			"byteLength":25109820,
			"uri":"scene.bin"
		}
	]
}
