{
	"asset":{
		"generator":"Khronos glTF Blender I/O v3.5.30",
		"version":"2.0"
	},
	"extensionsUsed":[
		"KHR_materials_specular",
		"KHR_materials_ior"
	],
	"scene":0,
	"scenes":[
		{
			"name":"Scene",
			"nodes":[
				0,
				1
			]
		}
	],
	"nodes":[
		{
			"mesh":0,
			"name":"7"
		},
		{
			"mesh":1,
			"name":"8"
		}
	],
	"materials":[
		{
			"doubleSided":true,
			"extensions":{
				"KHR_materials_specular":{
					"specularColorFactor":[
						0,
						0,
						0
					]
				},
				"KHR_materials_ior":{
					"ior":1.4500000476837158
				}
			},
			"name":"7.002",
			"normalTexture":{
				"index":0,
				"scale":0
			},
			"pbrMetallicRoughness":{
				"baseColorTexture":{
					"index":1
				},
				"metallicFactor":0,
				"metallicRoughnessTexture":{
					"index":2
				}
			}
		},
		{
			"doubleSided":true,
			"extensions":{
				"KHR_materials_specular":{
					"specularColorFactor":[
						0,
						0,
						0
					]
				},
				"KHR_materials_ior":{
					"ior":1.4500000476837158
				}
			},
			"name":"8.001",
			"normalTexture":{
				"index":3,
				"scale":0
			},
			"pbrMetallicRoughness":{
				"baseColorTexture":{
					"index":4
				},
				"metallicFactor":0,
				"metallicRoughnessTexture":{
					"index":5
				}
			}
		}
	],
	"meshes":[
		{
			"name":"7.002",
			"primitives":[
				{
					"attributes":{
						"POSITION":0,
						"TEXCOORD_0":1,
						"NORMAL":2
					},
					"indices":3,
					"material":0
				}
			]
		},
		{
			"name":"8.001",
			"primitives":[
				{
					"attributes":{
						"POSITION":4,
						"TEXCOORD_0":5,
						"NORMAL":6
					},
					"indices":7,
					"material":1
				}
			]
		}
	],
	"textures":[
		{
			"sampler":0,
			"source":0
		},
		{
			"sampler":0,
			"source":1
		},
		{
			"sampler":0,
			"source":2
		},
		{
			"sampler":0,
			"source":0
		},
		{
			"sampler":0,
			"source":1
		},
		{
			"sampler":0,
			"source":2
		}
	],
	"images":[
		{
			"mimeType":"image/jpeg",
			"name":"CirculatorySystem_normal",
			"uri":"CirculatorySystem_normal.jpg"
		},
		{
			"mimeType":"image/jpeg",
			"name":"CirculatorySystem_albedo",
			"uri":"CirculatorySystem_albedo.jpg"
		},
		{
			"mimeType":"image/png",
			"name":"CirculatorySystem_roughness",
			"uri":"CirculatorySystem_roughness.png"
		}
	],
	"accessors":[
		{
			"bufferView":0,
			"componentType":5126,
			"count":24962,
			"max":[
				25.952056884765625,
				169.80616760253906,
				10.421199798583984
			],
			"min":[
				-26.5447998046875,
				0.7246620059013367,
				-11.003945350646973
			],
			"type":"VEC3"
		},
		{
			"bufferView":1,
			"componentType":5126,
			"count":24962,
			"type":"VEC2"
		},
		{
			"bufferView":2,
			"componentType":5126,
			"count":24962,
			"type":"VEC3"
		},
		{
			"bufferView":3,
			"componentType":5123,
			"count":68400,
			"type":"SCALAR"
		},
		{
			"bufferView":4,
			"componentType":5126,
			"count":27778,
			"max":[
				28.57834243774414,
				168.47572326660156,
				10.184800148010254
			],
			"min":[
				-28.947999954223633,
				0.9114980101585388,
				-12.247971534729004
			],
			"type":"VEC3"
		},
		{
			"bufferView":5,
			"componentType":5126,
			"count":27778,
			"type":"VEC2"
		},
		{
			"bufferView":6,
			"componentType":5126,
			"count":27778,
			"type":"VEC3"
		},
		{
			"bufferView":7,
			"componentType":5123,
			"count":76590,
			"type":"SCALAR"
		}
	],
	"bufferViews":[
		{
			"buffer":0,
			"byteLength":299544,
			"byteOffset":0,
			"target":34962
		},
		{
			"buffer":0,
			"byteLength":199696,
			"byteOffset":299544,
			"target":34962
		},
		{
			"buffer":0,
			"byteLength":299544,
			"byteOffset":499240,
			"target":34962
		},
		{
			"buffer":0,
			"byteLength":136800,
			"byteOffset":798784,
			"target":34963
		},
		{
			"buffer":0,
			"byteLength":333336,
			"byteOffset":935584,
			"target":34962
		},
		{
			"buffer":0,
			"byteLength":222224,
			"byteOffset":1268920,
			"target":34962
		},
		{
			"buffer":0,
			"byteLength":333336,
			"byteOffset":1491144,
			"target":34962
		},
		{
			"buffer":0,
			"byteLength":153180,
			"byteOffset":1824480,
			"target":34963
		}
	],
	"samplers":[
		{
			"magFilter":9729,
			"minFilter":9987
		}
	],
	"buffers":[
		{
			"byteLength":1977660,
			"uri":"blood1.bin"
		}
	]
}
