{
	"asset":{
		"generator":"Khronos glTF Blender I/O v3.5.30",
		"version":"2.0"
	},
	"extensionsUsed":[
		"KHR_materials_unlit"
	],
	"scene":0,
	"scenes":[
		{
			"name":"Scene",
			"nodes":[
				2
			]
		}
	],
	"nodes":[
		{
			"mesh":0,
			"name":"aspergilloma lung"
		},
		{
			"children":[
				0
			],
			"name":"model_mesh.obj.cleaner.gles"
		},
		{
			"children":[
				1
			],
			"name":"Sketchfab_model",
			"rotation":[
				-0.70710688829422,
				0,
				0,
				0.7071066498756409
			]
		}
	],
	"materials":[
		{
			"extensions":{
				"KHR_materials_unlit":{}
			},
			"name":"material_0.002",
			"pbrMetallicRoughness":{
				"metallicFactor":0,
				"roughnessFactor":0.9
			}
		}
	],
	"meshes":[
		{
			"name":"Object_0.002",
			"primitives":[
				{
					"attributes":{
						"POSITION":0,
						"TEXCOORD_0":1,
						"NORMAL":2
					},
					"indices":3,
					"material":0
				}
			]
		}
	],
	"accessors":[
		{
			"bufferView":0,
			"componentType":5126,
			"count":26149,
			"max":[
				0.06442827731370926,
				0.04877448081970215,
				0.09158025681972504
			],
			"min":[
				-0.08017952740192413,
				-0.049578964710235596,
				-0.07481499016284943
			],
			"type":"VEC3"
		},
		{
			"bufferView":1,
			"componentType":5126,
			"count":26149,
			"type":"VEC2"
		},
		{
			"bufferView":2,
			"componentType":5126,
			"count":26149,
			"type":"VEC3"
		},
		{
			"bufferView":3,
			"componentType":5123,
			"count":149172,
			"type":"SCALAR"
		}
	],
	"bufferViews":[
		{
			"buffer":0,
			"byteLength":313788,
			"byteOffset":0,
			"target":34962
		},
		{
			"buffer":0,
			"byteLength":209192,
			"byteOffset":313788,
			"target":34962
		},
		{
			"buffer":0,
			"byteLength":313788,
			"byteOffset":522980,
			"target":34962
		},
		{
			"buffer":0,
			"byteLength":298344,
			"byteOffset":836768,
			"target":34963
		}
	],
	"buffers":[
		{
			"byteLength":1135112,
			"uri":"aspergilloma lung.bin"
		}
	]
}
