{
	"asset":{
		"generator":"Khronos glTF Blender I/O v3.5.30",
		"version":"2.0"
	},
	"extensionsUsed":[
		"KHR_materials_unlit"
	],
	"scene":0,
	"scenes":[
		{
			"name":"Scene",
			"nodes":[
				2
			]
		}
	],
	"nodes":[
		{
			"mesh":0,
			"name":"interstitial lung"
		},
		{
			"children":[
				0
			],
			"name":"model_mesh.obj.cleaner.gles"
		},
		{
			"children":[
				1
			],
			"name":"Sketchfab_model",
			"rotation":[
				-0.70710688829422,
				0,
				0,
				0.7071066498756409
			]
		}
	],
	"materials":[
		{
			"doubleSided":true,
			"extensions":{
				"KHR_materials_unlit":{}
			},
			"name":"material_0.002",
			"pbrMetallicRoughness":{
				"baseColorTexture":{
					"index":0,
					"texCoord":0
				},
				"metallicFactor":0,
				"roughnessFactor":0.9
			}
		}
	],
	"meshes":[
		{
			"name":"Object_0.002",
			"primitives":[
				{
					"attributes":{
						"POSITION":0,
						"TEXCOORD_0":1,
						"NORMAL":2
					},
					"indices":3,
					"material":0
				}
			]
		}
	],
	"textures":[
		{
			"sampler":0,
			"source":0
		}
	],
	"images":[
		{
			"mimeType":"image/jpeg",
			"name":"material_0_baseColor",
			"uri":"material_0_baseColor.jpg"
		}
	],
	"accessors":[
		{
			"bufferView":0,
			"componentType":5126,
			"count":17351,
			"max":[
				0.05238954722881317,
				0.08338415622711182,
				0.10647109150886536
			],
			"min":[
				-0.032433804124593735,
				-0.06412237882614136,
				-0.10976256430149078
			],
			"type":"VEC3"
		},
		{
			"bufferView":1,
			"componentType":5126,
			"count":17351,
			"type":"VEC2"
		},
		{
			"bufferView":2,
			"componentType":5126,
			"count":17351,
			"type":"VEC3"
		},
		{
			"bufferView":3,
			"componentType":5123,
			"count":97638,
			"type":"SCALAR"
		}
	],
	"bufferViews":[
		{
			"buffer":0,
			"byteLength":208212,
			"byteOffset":0,
			"target":34962
		},
		{
			"buffer":0,
			"byteLength":138808,
			"byteOffset":208212,
			"target":34962
		},
		{
			"buffer":0,
			"byteLength":208212,
			"byteOffset":347020,
			"target":34962
		},
		{
			"buffer":0,
			"byteLength":195276,
			"byteOffset":555232,
			"target":34963
		}
	],
	"samplers":[
		{
			"magFilter":9729,
			"minFilter":9987
		}
	],
	"buffers":[
		{
			"byteLength":750508,
			"uri":"interstitial lung.bin"
		}
	]
}
